# xmcd
#
# Track frame offsets:
# 150
# 12119
# 28155
# 47680
# 71485
# 91996
# 106845
# 128408
# 141222
# 162069
# 173651
# 189283
#
# Disc length: 2772 seconds
#
#
# Revision: 0
# Processed by: cddbd v1.5.2PL0 Copyright (c) Steve Scherf et al.
# Submitted via: FreeRIP 2.942 
#
DISCID=8c0ad20c
DTITLE=abc Soap Love Affair
DYEAR=2008
DGENRE=Easy Listening
TTITLE0=They Say It's Wonderful - Susan Lucci - All My Children
TTITLE1=Let It Be Me - Kassie Depaiva - One Life To Live
TTITLE2=I'll Be There - Tika Sumpter - One Life To Live
TTITLE3=My Funny Valentine - Bradford Anderson - General Hospital
TTITLE4=Because You Loved Me - Bobbie Eakes - All My Children
TTITLE5=Never My Love - Kathy Brier - One Life To Live
TTITLE6=Every Time We Say Goodbye - Anthony Geary - General Hospital
TTITLE7=(You Make Me Feel Like) A Natural Woman - Sonya Eddy - General Hospital
TTITLE8=Quando, Quando, Quando - Jason Tam and Brittany Underwood - One Life To Live
TTITLE9=In My Life - Rick Hearst - General Hospital
TTITLE10=From This Moment On - Kristen Alderson - One Life To Live
TTITLE11=Always On My Mind - David Canary - All My Children
EXTD=
EXTT0=
EXTT1=
EXTT2=
EXTT3=
EXTT4=
EXTT5=
EXTT6=
EXTT7=
EXTT8=
EXTT9=
EXTT10=
EXTT11=
PLAYORDER=
